<svg width="50" height="50" viewBox="0 0 50 50" fill="none" xmlns="http://www.w3.org/2000/svg">
<path d="M49.9826 24.9512C49.9826 26.709 48.6806 28.0859 47.2049 28.0859H44.4271L44.4879 43.7305C44.4879 43.9941 44.4705 44.2578 44.4444 44.5215V46.0938C44.4444 48.252 42.8906 50 40.9722 50H39.5833C39.4879 50 39.3924 50 39.2969 49.9902C39.1754 50 39.0538 50 38.9323 50H36.1111H34.0278C32.1094 50 30.5556 48.252 30.5556 46.0938V43.75V37.5C30.5556 35.7715 29.3142 34.375 27.7778 34.375H22.2222C20.6858 34.375 19.4444 35.7715 19.4444 37.5V43.75V46.0938C19.4444 48.252 17.8906 50 15.9722 50H13.8889H11.1198C10.9896 50 10.8594 49.9902 10.7292 49.9805C10.625 49.9902 10.5208 50 10.4167 50H9.02778C7.10938 50 5.55556 48.252 5.55556 46.0938V35.1562C5.55556 35.0684 5.55556 34.9707 5.56424 34.8828V28.0859H2.77778C1.21528 28.0859 0 26.7188 0 24.9512C0 24.0723 0.260417 23.291 0.868056 22.6074L23.125 0.78125C23.7326 0.0976562 24.4271 0 25.0347 0C25.6424 0 26.3368 0.195312 26.8576 0.683594L49.0278 22.6074C49.7222 23.291 50.0694 24.0723 49.9826 24.9512Z" fill="#AE121C"/>
</svg>
