<svg width="50" height="50" viewBox="0 0 50 50" fill="none" xmlns="http://www.w3.org/2000/svg">
<path d="M0 7.14286C0 3.20312 2.80273 0 6.25 0H43.75C47.1973 0 50 3.20312 50 7.14286V42.8571C50 46.7969 47.1973 50 43.75 50H6.25C2.80273 50 0 46.7969 0 42.8571V7.14286ZM4.6875 37.5V41.0714C4.6875 42.0536 5.39062 42.8571 6.25 42.8571H9.375C10.2344 42.8571 10.9375 42.0536 10.9375 41.0714V37.5C10.9375 36.5179 10.2344 35.7143 9.375 35.7143H6.25C5.39062 35.7143 4.6875 36.5179 4.6875 37.5ZM40.625 35.7143C39.7656 35.7143 39.0625 36.5179 39.0625 37.5V41.0714C39.0625 42.0536 39.7656 42.8571 40.625 42.8571H43.75C44.6094 42.8571 45.3125 42.0536 45.3125 41.0714V37.5C45.3125 36.5179 44.6094 35.7143 43.75 35.7143H40.625ZM4.6875 23.2143V26.7857C4.6875 27.7679 5.39062 28.5714 6.25 28.5714H9.375C10.2344 28.5714 10.9375 27.7679 10.9375 26.7857V23.2143C10.9375 22.2321 10.2344 21.4286 9.375 21.4286H6.25C5.39062 21.4286 4.6875 22.2321 4.6875 23.2143ZM40.625 21.4286C39.7656 21.4286 39.0625 22.2321 39.0625 23.2143V26.7857C39.0625 27.7679 39.7656 28.5714 40.625 28.5714H43.75C44.6094 28.5714 45.3125 27.7679 45.3125 26.7857V23.2143C45.3125 22.2321 44.6094 21.4286 43.75 21.4286H40.625ZM4.6875 8.92857V12.5C4.6875 13.4821 5.39062 14.2857 6.25 14.2857H9.375C10.2344 14.2857 10.9375 13.4821 10.9375 12.5V8.92857C10.9375 7.94643 10.2344 7.14286 9.375 7.14286H6.25C5.39062 7.14286 4.6875 7.94643 4.6875 8.92857ZM40.625 7.14286C39.7656 7.14286 39.0625 7.94643 39.0625 8.92857V12.5C39.0625 13.4821 39.7656 14.2857 40.625 14.2857H43.75C44.6094 14.2857 45.3125 13.4821 45.3125 12.5V8.92857C45.3125 7.94643 44.6094 7.14286 43.75 7.14286H40.625ZM15.625 10.7143V17.8571C15.625 19.8326 17.0215 21.4286 18.75 21.4286H31.25C32.9785 21.4286 34.375 19.8326 34.375 17.8571V10.7143C34.375 8.73884 32.9785 7.14286 31.25 7.14286H18.75C17.0215 7.14286 15.625 8.73884 15.625 10.7143ZM18.75 28.5714C17.0215 28.5714 15.625 30.1674 15.625 32.1429V39.2857C15.625 41.2612 17.0215 42.8571 18.75 42.8571H31.25C32.9785 42.8571 34.375 41.2612 34.375 39.2857V32.1429C34.375 30.1674 32.9785 28.5714 31.25 28.5714H18.75Z" fill="white"/>
</svg>
