<svg width="50" height="52" viewBox="0 0 50 52" fill="none" xmlns="http://www.w3.org/2000/svg">
<path d="M48.5313 9.53125C50.4844 7.57813 50.4844 4.40625 48.5313 2.45312C46.5781 0.5 43.4062 0.5 41.4531 2.45312L25 18.9219L8.53125 2.46875C6.57812 0.515625 3.40625 0.515625 1.45312 2.46875C-0.5 4.42187 -0.5 7.59375 1.45312 9.54687L17.9219 26L1.46875 42.4687C-0.484375 44.4219 -0.484375 47.5938 1.46875 49.5469C3.42188 51.5 6.59375 51.5 8.54688 49.5469L25 33.0781L41.4688 49.5312C43.4219 51.4844 46.5938 51.4844 48.5469 49.5312C50.5 47.5781 50.5 44.4062 48.5469 42.4531L32.0781 26L48.5313 9.53125Z" fill="white"/>
</svg>
